<svg width="800" height="800" viewBox="0 0 800 800" fill="none" xmlns="http://www.w3.org/2000/svg">
<g clip-path="url(#clip0_775_3403)">
<mask id="mask0_775_3403" style="mask-type:luminance" maskUnits="userSpaceOnUse" x="0" y="0" width="800" height="800">
<path d="M800 0H0V800H800V0Z" fill="white"/>
</mask>
<g mask="url(#mask0_775_3403)">
<path d="M461.001 633.333C456.021 633.35 451.101 632.251 446.601 630.117C442.102 627.983 438.138 624.867 435.001 621L274.001 421C269.098 415.036 266.418 407.554 266.418 399.833C266.418 392.113 269.098 384.631 274.001 378.667L440.668 178.667C446.326 171.86 454.456 167.579 463.27 166.766C472.084 165.953 480.86 168.675 487.668 174.333C494.475 179.991 498.756 188.122 499.568 196.936C500.381 205.75 497.659 214.526 492.001 221.333L343.001 400L487.001 578.667C491.077 583.56 493.666 589.518 494.462 595.836C495.258 602.154 494.228 608.568 491.492 614.319C488.757 620.07 484.432 624.917 479.028 628.287C473.625 631.657 467.369 633.408 461.001 633.333Z" fill="#991B1C"/>
</g>
</g>
<defs>
<clipPath id="clip0_775_3403">
<rect width="800" height="800" fill="white" transform="matrix(-1 0 0 1 800 0)"/>
</clipPath>
</defs>
</svg>
