<svg width="24" height="24" viewBox="0 0 24 24" fill="none" xmlns="http://www.w3.org/2000/svg">
<path d="M10.7312 3.6689C10.4311 3.36894 10.0242 3.20044 9.59995 3.20044C9.17569 3.20044 8.7688 3.36894 8.46875 3.6689L1.26875 10.8689C0.968798 11.1689 0.800293 11.5758 0.800293 12.0001C0.800293 12.4244 0.968798 12.8313 1.26875 13.1313L8.46875 20.3313C8.77051 20.6227 9.17468 20.784 9.59419 20.7804C10.0137 20.7767 10.415 20.6085 10.7117 20.3118C11.0083 20.0152 11.1766 19.6139 11.1802 19.1943C11.1839 18.7748 11.0226 18.3707 10.7312 18.0689L6.39995 13.6001H21.6C22.0243 13.6001 22.4313 13.4315 22.7313 13.1315C23.0314 12.8314 23.2 12.4244 23.2 12.0001C23.2 11.5758 23.0314 11.1688 22.7313 10.8687C22.4313 10.5687 22.0243 10.4001 21.6 10.4001H6.39995L10.7312 5.9313C11.0311 5.63125 11.1996 5.22436 11.1996 4.8001C11.1996 4.37583 11.0311 3.96894 10.7312 3.6689Z" fill="black"/>
</svg>
