<svg width="800" height="800" viewBox="0 0 800 800" fill="none" xmlns="http://www.w3.org/2000/svg">
<g clip-path="url(#clip0_747_2063)">
<path d="M338.999 633.333C343.979 633.35 348.899 632.251 353.399 630.117C357.898 627.983 361.862 624.867 364.999 621L525.999 421C530.902 415.036 533.582 407.554 533.582 399.833C533.582 392.113 530.902 384.631 525.999 378.667L359.332 178.667C353.674 171.86 345.544 167.579 336.73 166.766C327.916 165.953 319.14 168.675 312.332 174.333C305.525 179.991 301.244 188.122 300.432 196.936C299.619 205.75 302.341 214.526 307.999 221.333L456.999 400L312.999 578.667C308.923 583.56 306.334 589.518 305.538 595.836C304.742 602.154 305.772 608.568 308.508 614.319C311.243 620.07 315.568 624.917 320.972 628.287C326.375 631.657 332.631 633.408 338.999 633.333Z" fill="#991B1C"/>
</g>
<defs>
<clipPath id="clip0_747_2063">
<rect width="800" height="800" fill="white" transform="matrix(-1 0 0 1 800 0)"/>
</clipPath>
</defs>
</svg>
