<svg width="800" height="800" viewBox="0 0 800 800" fill="none" xmlns="http://www.w3.org/2000/svg">
<path d="M298.4 255.2H472.8C481.6 255.2 488.8 248 488.8 239.2V207.2C488.8 180.8 467.2 160 441.6 160H330.4C304 160 283.2 181.6 283.2 207.2V239.2C282.4 248 289.6 255.2 298.4 255.2Z" fill="#991B1C"/>
<path d="M560 199.2H544C539.2 199.2 536 202.4 536 207.2V239.2C536 274.4 507.2 302.4 472.8 302.4H298.4C263.2 302.4 235.2 273.6 235.2 239.2V207.2C235.2 202.4 232 199.2 227.2 199.2H211.2C184.8 199.2 164 220.8 164 246.4V571.2C164 597.6 185.6 618.4 211.2 618.4H371.2C393.6 618.4 396 600 396 593.6V422.4C396 404 406.4 400 412 400H584.8C604 400 607.2 383.2 607.2 377.6V248C608 220.8 586.4 199.2 560 199.2Z" fill="#991B1C"/>
<path d="M627.2 483.2H452.8C448 483.2 444 479.2 444 474.4V456.8C444 452 448 448 452.8 448H627.2C632 448 636 452 636 456.8V474.4C636 479.2 632 483.2 627.2 483.2ZM627.2 561.6H452.8C448 561.6 444 557.6 444 552.8V535.2C444 530.4 448 526.4 452.8 526.4H627.2C632 526.4 636 530.4 636 535.2V552.8C636 557.6 632 561.6 627.2 561.6ZM627.2 640H452.8C448 640 444 636 444 631.2V613.6C444 608.8 448 604.8 452.8 604.8H627.2C632 604.8 636 608.8 636 613.6V631.2C636 636 632 640 627.2 640Z" fill="#991B1C"/>
</svg>
