<svg width="16" height="16" viewBox="0 0 16 16" fill="none" xmlns="http://www.w3.org/2000/svg">
<path d="M2.45617 10.5162C2.45617 10.5162 2.22742 10.9387 2.20992 11.2024C2.19242 11.4662 2.36867 13.6137 2.75492 14.0887C3.14117 14.5637 4.32117 15.8137 7.80492 15.8487C11.2887 15.8837 13.0662 14.2999 13.2599 13.9837C13.4537 13.6674 13.6999 12.1887 13.7174 11.0274C13.7349 9.86616 7.54117 10.6749 7.54117 10.6749L2.45617 10.5162Z" fill="#FBB75A"/>
<path d="M7.73504 13.3313C10.8325 13.4188 13.7 11.5188 13.7 11.5188L13.6125 12.4688C13.6125 12.4688 11.255 14.2813 7.78754 14.1938C4.32004 14.1063 2.31504 12.4688 2.31504 12.4688L2.22754 11.6413C2.22754 11.6413 5.02629 13.2538 7.73504 13.3313Z" fill="#F2A05B"/>
<path d="M8.12251 5.94008C6.80251 5.94633 2.82626 6.25633 2.42126 7.94633C2.01626 9.63633 2.06876 11.2201 2.14001 11.3601C2.21001 11.5013 2.36751 11.2576 2.73876 11.3951C3.21376 11.5713 3.17876 12.8551 4.04126 13.0838C4.90376 13.3126 4.92126 12.1338 5.90626 12.2038C6.89126 12.2738 6.43376 13.5951 7.73626 13.6113C9.07376 13.6288 8.57751 12.3038 9.51376 12.1863C10.44 12.0688 9.95376 13.5063 11.2388 13.3126C12.5238 13.1188 12.375 11.2901 13.0325 11.0963C13.5313 10.9501 13.4888 11.4401 13.725 11.4188C13.9188 11.4013 13.8425 8.72008 13.6663 8.12258C13.49 7.52508 11.835 5.92258 8.12251 5.94008Z" fill="url(#paint0_radial_578_548)"/>
<path d="M4.11882 9.71508C3.18257 9.32008 2.88007 8.94633 2.72882 8.75633C2.62382 8.62383 2.46507 8.57133 2.37632 8.67758C2.28882 8.78258 2.33257 8.89758 2.42882 9.01133C2.52507 9.12633 2.95632 9.78508 4.06507 10.1463C5.04007 10.4638 5.68382 10.5076 5.93007 10.5163C6.20382 10.5263 6.31757 10.1826 5.95632 10.1376C5.54257 10.0863 5.14007 10.1463 4.11882 9.71508ZM6.93132 10.2638C6.69132 10.2576 6.60257 10.3926 6.60257 10.4988C6.60257 10.6276 6.71382 10.6988 6.90757 10.7101C7.10132 10.7213 7.21257 10.5926 7.21257 10.5051C7.21382 10.4163 7.16007 10.2688 6.93132 10.2638Z" fill="#FDFFFF"/>
<path d="M3.14244 11.0976C3.03244 11.2051 3.07869 11.3301 3.13119 11.3951C3.21744 11.5013 3.37244 11.5188 3.45244 11.4563C3.54369 11.3863 3.53244 11.2563 3.47494 11.1701C3.40119 11.0576 3.25119 10.9901 3.14244 11.0976ZM3.44994 11.5601C3.29869 11.6451 3.36619 11.8338 3.44744 11.9888C3.62119 12.3188 3.67619 12.5876 3.87619 12.7201C4.07869 12.8538 4.32869 12.7613 4.30494 12.6226C4.26744 12.4013 4.13119 12.5688 4.01369 12.2888C3.96494 12.1726 3.86494 11.9863 3.74869 11.7351C3.68119 11.5876 3.60244 11.4738 3.44994 11.5601ZM6.97244 12.4513C6.82369 12.5576 6.91369 12.8263 7.10119 13.0376C7.28869 13.2488 7.55244 13.4188 7.83994 13.3426C8.06244 13.2838 8.04494 13.0376 7.89244 12.9676C7.73994 12.8976 7.55869 12.9388 7.39369 12.7213C7.31369 12.6151 7.20119 12.2876 6.97244 12.4513ZM10.5049 12.2201C10.3574 12.3288 10.4962 12.5551 10.5874 12.7113C10.6787 12.8676 10.9799 13.1676 11.1562 12.9901C11.2849 12.8601 11.0424 12.7026 10.9287 12.5326C10.8437 12.4038 10.7012 12.0738 10.5049 12.2201ZM10.2512 11.8126C10.1537 11.8838 10.1687 11.9963 10.2037 12.0588C10.2512 12.1413 10.4037 12.1763 10.4912 12.1001C10.5762 12.0263 10.5262 11.9063 10.4799 11.8476C10.4337 11.7888 10.3162 11.7651 10.2512 11.8126Z" fill="#FCE9CA"/>
<path d="M10.8 4.94616C10.8 4.94616 9.83376 6.27866 9.89501 6.54366C9.94251 6.75241 10.1675 6.97616 10.6488 7.00866C11.13 7.04116 11.4313 6.81741 11.5 6.60491C11.5925 6.32241 11.2913 5.42241 11.1825 5.24366C11.0288 4.98991 10.89 4.95366 10.8 4.94616ZM12.7975 6.14866L11.7588 7.60366C11.7588 7.60366 11.79 7.92241 12.1025 8.05991C12.4288 8.20241 13.095 8.21116 13.2863 7.93241C13.5038 7.61616 13.41 7.07241 13.3 6.74366C13.215 6.48616 13.035 6.12116 12.7975 6.14866ZM11.0388 7.79241L10.0338 9.33616C10.0338 9.33616 10.0225 9.71866 10.4763 9.82491C10.8363 9.90866 11.4975 9.91241 11.7438 9.70116C11.99 9.48991 11.97 9.06491 11.7575 8.61866C11.525 8.13366 11.18 7.67741 11.0388 7.79241ZM8.53626 8.17116L7.22001 9.76366C7.22001 9.76366 7.19376 10.0712 7.51876 10.2212C7.93626 10.4149 8.57876 10.4049 8.90501 10.2299C9.19126 10.0762 9.23501 9.58866 9.13126 9.28366C9.04626 9.03491 8.92876 8.82366 8.88501 8.70866C8.84126 8.59491 8.69376 8.24116 8.53626 8.17116ZM5.70251 7.63366L4.58126 9.38491C4.58126 9.38491 4.61626 9.79366 5.04376 9.87741C5.41251 9.94991 6.02001 9.99241 6.23126 9.72741C6.44251 9.46241 6.45126 8.78991 6.24876 8.31491C6.04626 7.84116 5.87001 7.69616 5.70251 7.63366ZM4.00001 5.98241L3.85001 5.92866L2.85001 7.50866C2.85001 7.50866 2.82126 7.78741 3.05376 7.93616C3.27376 8.07741 3.97376 8.14741 4.35126 7.96241C4.73001 7.77741 4.70251 7.15741 4.43876 6.62491C4.19501 6.13116 4.00001 5.98241 4.00001 5.98241ZM5.83501 4.81616L4.86376 6.49241C4.86376 6.49241 4.90626 6.70991 5.24126 6.80491C5.57001 6.89866 6.00001 6.88116 6.22001 6.71116C6.44126 6.54116 6.50001 6.16741 6.39876 5.73366C6.33001 5.43741 6.06376 4.90116 5.83501 4.81616Z" fill="#EE5B4A"/>
<path d="M4.87625 8.24506C4.6675 8.69506 4.375 9.36256 4.70875 9.58256C5.0425 9.80256 5.53625 9.45006 5.71125 8.79006C5.88625 8.13006 5.91375 7.80006 5.74625 7.65881C5.58 7.52006 5.14875 7.65631 4.87625 8.24506ZM3.74375 5.87756C3.50625 5.89256 3.23375 6.26006 3.0975 6.62131C2.96125 6.98256 2.8025 7.43131 2.86 7.57631C2.9175 7.72131 3.30875 7.89756 3.47625 7.59006C3.64375 7.28256 3.61 6.87131 3.6475 6.66131C3.71375 6.29131 4 5.98381 4 5.98381C4 5.98381 3.9025 5.86756 3.74375 5.87756ZM5.62625 4.74381C5.45625 4.75381 5.295 4.82506 5.15 5.30006C5.07125 5.56006 4.84875 5.86131 4.8275 6.14506C4.80625 6.43006 4.87 6.50381 4.87 6.50381C4.87 6.50381 5.2775 6.58256 5.43625 6.26506C5.58875 5.96131 5.54125 5.65131 5.5925 5.50756C5.64375 5.36256 5.8775 4.83631 5.8775 4.83631C5.8775 4.83631 5.775 4.73631 5.62625 4.74381Z" fill="#FD6F42"/>
<path d="M10.7587 4.93751C10.58 4.92876 10.3187 5.15001 10.1525 5.54501C9.98497 5.94001 9.88372 6.36876 9.89122 6.49501C9.89872 6.62126 10.5587 6.63626 10.7912 6.25501C10.9375 6.01501 10.93 5.37126 10.9137 5.21626C10.8987 5.06001 10.945 4.94626 10.7587 4.93751ZM12.7425 6.14376C12.5887 6.16876 12.2262 6.25751 11.9337 6.88876C11.7512 7.28251 11.6962 7.66126 11.8287 7.71626C11.9612 7.77126 12.3225 7.82626 12.4875 7.62001C12.6525 7.41376 12.835 6.85251 12.8762 6.57251C12.9162 6.29501 12.9437 6.11126 12.7425 6.14376ZM10.0712 9.44251C10.2687 9.62251 10.645 9.45251 10.78 9.29251C10.9862 9.04626 11.1587 8.53126 11.1675 8.17126C11.1737 7.91001 11.2337 7.76251 11.005 7.77501C10.9262 7.78001 10.71 7.81876 10.46 8.18876C10.2612 8.48126 10.1475 8.71251 10.0812 8.99876C10.025 9.23626 10.0137 9.39001 10.0712 9.44251ZM8.27622 8.08251C8.14872 8.07751 7.90622 8.15251 7.65622 8.56626C7.40497 8.98001 7.11997 9.64876 7.24247 9.85501C7.36622 10.0613 7.66872 10.0838 7.97747 9.95626C8.28497 9.82876 8.49622 9.38376 8.51372 9.20376C8.53122 9.02376 8.64997 8.25376 8.54872 8.17876C8.44747 8.10501 8.38622 8.08751 8.27622 8.08251Z" fill="#FF6E45"/>
<path d="M13.0374 3.25372C13.0374 4.99497 10.2549 6.53872 8.08619 6.53872C5.91744 6.53872 3.15869 4.90122 3.15869 3.15997C3.15869 1.41872 5.87869 0.0324707 8.04619 0.0324707C10.2137 0.0324707 13.0374 1.51247 13.0374 3.25372Z" fill="url(#paint1_radial_578_548)"/>
<path d="M9.09879 3.88988C9.14254 3.82863 9.96629 3.89738 10.04 3.91613C10.075 3.92488 10.0663 7.06613 10.0225 7.09238C9.98504 7.11488 9.83754 7.25113 9.55629 7.25113C9.27504 7.25113 9.11629 7.15488 9.06379 7.11863C9.01129 7.08363 9.05504 3.95113 9.09879 3.88988Z" fill="#FEA8A8"/>
<path d="M7.58637 4.66509C7.55262 4.69384 7.54262 7.72759 7.56887 7.75384C7.59512 7.78009 7.77137 7.93884 8.11387 7.93009C8.45762 7.92134 8.61512 7.79759 8.64137 7.77134C8.66762 7.74509 8.65887 4.66509 8.63262 4.64759C8.60637 4.62884 7.63887 4.62009 7.58637 4.66509Z" fill="#EC7FAE"/>
<path d="M6.1074 4.01386C6.0649 4.03886 6.06365 7.12011 6.08115 7.14636C6.09865 7.17261 6.35365 7.26136 6.59115 7.26136C6.82865 7.26136 7.0574 7.20886 7.08365 7.18261C7.1099 7.15636 7.0924 4.05011 7.06615 4.01511C7.0399 3.98011 6.15115 3.98761 6.1074 4.01386Z" fill="#93C7EE"/>
<path d="M8.12239 1.875C8.17489 1.875 8.24614 2.28875 8.34239 2.52625C8.43864 2.76375 8.79989 3.35375 8.65864 3.86375C8.50489 4.4225 7.63364 4.53125 7.44489 3.8025C7.31239 3.2925 7.76114 2.76375 7.87614 2.52625C7.95489 2.3625 8.08614 1.875 8.12239 1.875Z" fill="url(#paint2_radial_578_548)"/>
<path d="M9.53877 1.23242C9.53877 1.23242 9.40877 1.82492 9.24877 2.07742C9.02002 2.43867 8.87502 2.93242 9.05502 3.33617C9.28377 3.84617 10.2 3.81992 10.2163 2.94867C10.225 2.49117 10.025 2.24867 9.88252 1.98992C9.78502 1.81367 9.60002 1.24992 9.53877 1.23242Z" fill="url(#paint3_radial_578_548)"/>
<path d="M6.62632 1.33008C6.62632 1.33008 6.38882 1.92008 6.23882 2.14008C6.08882 2.36008 5.82257 2.87883 5.97507 3.29258C6.16007 3.79383 6.97882 3.85383 7.13632 3.19633C7.24132 2.75633 7.01257 2.42258 6.85507 2.06133C6.75632 1.83383 6.62632 1.33008 6.62632 1.33008Z" fill="url(#paint4_radial_578_548)"/>
<defs>
<radialGradient id="paint0_radial_578_548" cx="0" cy="0" r="1" gradientTransform="matrix(-0.111601 5.72198 -12.4564 -0.243233 8.16452 7.84071)" gradientUnits="userSpaceOnUse">
<stop offset="0.445" stop-color="#FEEAC9"/>
<stop offset="0.565" stop-color="#FEE7C2"/>
<stop offset="0.741" stop-color="#FEDEAE"/>
<stop offset="0.952" stop-color="#FFCF8D"/>
<stop offset="1" stop-color="#FFCB85"/>
</radialGradient>
<radialGradient id="paint1_radial_578_548" cx="0" cy="0" r="1" gradientUnits="userSpaceOnUse" gradientTransform="translate(8.09882 3.28543) scale(4.878 3.00338)">
<stop offset="0.034" stop-color="#FFE265" stop-opacity="0.7"/>
<stop offset="0.112" stop-color="#FFE575" stop-opacity="0.643"/>
<stop offset="0.417" stop-color="#FFF0B0" stop-opacity="0.422"/>
<stop offset="0.677" stop-color="#FFF8DB" stop-opacity="0.234"/>
<stop offset="0.88" stop-color="#FFFDF5" stop-opacity="0.087"/>
<stop offset="1" stop-color="white" stop-opacity="0"/>
</radialGradient>
<radialGradient id="paint2_radial_578_548" cx="0" cy="0" r="1" gradientUnits="userSpaceOnUse" gradientTransform="translate(8.11351 4.49725) scale(2.4285 2.4285)">
<stop offset="0.17" stop-color="#FF9616"/>
<stop offset="0.654" stop-color="#FFD429"/>
</radialGradient>
<radialGradient id="paint3_radial_578_548" cx="0" cy="0" r="1" gradientUnits="userSpaceOnUse" gradientTransform="translate(9.65152 3.8533) scale(2.3805)">
<stop offset="0.17" stop-color="#FF9616"/>
<stop offset="0.654" stop-color="#FFD429"/>
</radialGradient>
<radialGradient id="paint4_radial_578_548" cx="0" cy="0" r="1" gradientUnits="userSpaceOnUse" gradientTransform="translate(6.60282 3.85283) scale(2.35663)">
<stop offset="0.17" stop-color="#FF9616"/>
<stop offset="0.654" stop-color="#FFD429"/>
</radialGradient>
</defs>
</svg>
