<svg width="800" height="800" viewBox="0 0 800 800" fill="none" xmlns="http://www.w3.org/2000/svg">
<path d="M733.333 755.555H66.6667C29.8472 755.555 0 725.708 0 688.889V200C0 163.193 29.8278 133.353 66.6667 133.333H266.667V266.667H533.333V133.333H733.333C770.172 133.353 800 163.193 800 200V688.889C800 725.669 770.215 755.493 733.333 755.555ZM200 533.333H181.482C130.278 533.398 88.8889 574.829 88.8889 625.926C88.8889 636.153 97.1792 644.444 107.407 644.444H381.482C391.732 644.421 400 636.139 400 625.926C400 574.829 358.61 533.398 307.407 533.333H288.889C288.051 533.901 266.154 548.611 244.444 548.611C222.735 548.611 200.837 533.901 200 533.333ZM700 511.111H500C493.806 511.171 488.889 516.122 488.889 522.222V544.444C488.889 550.58 493.864 555.555 500 555.555H700C706.154 555.537 711.111 550.569 711.111 544.444V522.222C711.111 516.122 706.194 511.171 700 511.111ZM244.444 511.111C293.536 511.111 333.333 471.314 333.333 422.222C333.333 373.13 293.536 333.333 244.444 333.333C195.353 333.333 155.556 373.13 155.556 422.222C155.556 471.314 195.353 511.111 244.444 511.111ZM700 422.222H500C493.806 422.282 488.889 427.233 488.889 433.333V455.555C488.889 461.692 493.864 466.667 500 466.667H700C706.154 466.648 711.111 461.68 711.111 455.555V433.333C711.111 427.233 706.194 422.282 700 422.222ZM700 333.333H500C493.806 333.393 488.889 338.344 488.889 344.444V366.667C488.889 372.803 493.864 377.778 500 377.778H700C706.154 377.76 711.111 372.792 711.111 366.667V344.444C711.111 338.344 706.194 333.393 700 333.333ZM488.889 222.222H311.111V88.8888C311.111 64.3429 331.01 44.4443 355.556 44.4443H444.444C468.99 44.4443 488.889 64.3429 488.889 88.8888V222.222Z" fill="#991B1C"/>
</svg>
