<svg width="800" height="800" viewBox="0 0 800 800" fill="none" xmlns="http://www.w3.org/2000/svg">
<path d="M780.953 590.476V247.619C780.953 247.619 434.286 489.524 400.572 502.076C367.429 490.095 19.0479 247.619 19.0479 247.619V590.476C19.0479 638.095 29.1431 647.619 76.1907 647.619H723.81C771.981 647.619 780.953 639.257 780.953 590.476ZM780.4 180.4C780.4 145.714 770.286 133.333 723.81 133.333H76.1907C28.3812 133.333 19.0479 148.191 19.0479 182.857L19.6193 188.191C19.6193 188.191 363.791 425.143 400.572 438.095C439.429 423.048 780.953 182.857 780.953 182.857L780.4 180.4Z" fill="#991B1C"/>
</svg>
