<svg style="display: none;" xmlns="http://www.w3.org/2000/svg">
  <symbol id="icon-profile-large" viewBox="0 0 800 800" fill="none">
    <path d="M780.953 590.476V247.619C780.953 247.619 434.286 489.524 400.572 502.076C367.429 490.095 19.0479 247.619 19.0479 247.619V590.476C19.0479 638.095 29.1431 647.619 76.1907 647.619H723.81C771.981 647.619 780.953 639.257 780.953 590.476ZM780.4 180.4C780.4 145.714 770.286 133.333 723.81 133.333H76.1907C28.3812 133.333 19.0479 148.191 19.0479 182.857L19.6193 188.191C19.6193 188.191 363.791 425.143 400.572 438.095C439.429 423.048 780.953 182.857 780.953 182.857L780.4 180.4Z" fill="#991B1C"/>
  </symbol>

  <symbol id="icon-dev-small" viewBox="0 0 19 19" fill="none">
    <path d="M13.6025 2.77075H5.28996C3.54106 2.77075 2.12329 4.18852 2.12329 5.93742V13.0624C2.12329 14.8113 3.54106 16.2291 5.28996 16.2291H13.6025C15.3514 16.2291 16.7691 14.8113 16.7691 13.0624V5.93742C16.7691 4.18852 15.3514 2.77075 13.6025 2.77075Z" stroke="#A0A0A0" stroke-width="1.5"/>
    <path d="M2.16052 6.00867L7.86448 9.27825C8.34247 9.55561 8.88528 9.7017 9.43792 9.7017C9.99055 9.7017 10.5334 9.55561 11.0114 9.27825L16.7311 6.00867" stroke="#A0A0A0" stroke-width="1.5" stroke-linecap="round" stroke-linejoin="round"/>
  </symbol>
</svg>