<svg style="display: none;" xmlns="http://www.w3.org/2000/svg" xmlns:xlink="http://www.w3.org/1999/xlink">
  
  <symbol id="icon-home-large" viewBox="0 0 800 800" fill="none">
    <path d="M358.983 100C382.489 81.14 415.94 81.14 439.446 100L660.874 277.667C676.08 289.867 684.929 308.31 684.929 327.807V650.104C684.929 685.607 656.146 714.39 620.643 714.39H534.929C499.426 714.39 470.643 685.607 470.643 650.104V478.676C470.643 466.841 461.049 457.247 449.214 457.247H349.214C337.38 457.247 327.786 466.841 327.786 478.676V650.104C327.786 685.607 299.003 714.39 263.5 714.39H177.786C142.282 714.39 113.5 685.607 113.5 650.104V327.807C113.5 308.31 122.348 289.867 137.555 277.667L358.983 100ZM401.214 145.104C399.214 143.104 397.214 145.104 397.214 145.104L176.214 323.104L170.214 328.104V650.104C170 661 170 660.104 177.714 660.104H263.714C273.159 660.104 273.214 661 273.214 650.104V478.274C273.214 442.771 313.497 403 349 403H449C484.503 403 525 442.997 525 478.5V650.5C525 661 525 660 534.5 660H620.5C628 660 628 661 628.214 650.104V328.104L622.214 323.104L401.214 145.104Z" fill="white"/>
  </symbol>

  <symbol id="icon-home-fluent" viewBox="0 0 28 28">
    <g id="SVGRepo_bgCarrier" stroke-width="0"/>
    <g id="SVGRepo_tracerCarrier" stroke-linecap="round" stroke-linejoin="round"/>
    <g id="SVGRepo_iconCarrier">
      <title>ic_fluent_home_28_filled</title>
      <desc>Created with Sketch.</desc>
      <g id="ðŸ”-System-Icons" stroke="none" stroke-width="1" fill="none" fill-rule="evenodd">
        <g id="ic_fluent_home_28_filled" fill="#ffffff" fill-rule="nonzero">
          <path d="M12.5921,3.49787 C13.4147,2.83801 14.5853,2.83801 15.4079,3.49787 L23.1579,9.71462 C23.6902,10.1417 24,10.7872 24,11.4697 L24,22.75 C24,23.9926 22.9926,25 21.75,25 L19.25,25 C18.0074,25 17,23.9926 17,22.75 L17,16.25 C17,15.8358 16.6642,15.5 16.25,15.5 L11.75,15.5 C11.3358,15.5 11,15.8358 11,16.25 L11,22.75 C11,23.9926 9.99264,25 8.75,25 L6.25,25 C5.00736,25 4,23.9926 4,22.75 L4,11.4697 C4,10.7872 4.30976,10.1417 4.84212,9.71462 L12.5921,3.49787 Z" id="ðŸŽ¨-Color"></path>
        </g>
      </g>
    </g>
  </symbol>

</svg>