<svg width="21" height="21" viewBox="0 0 21 21" fill="none" xmlns="http://www.w3.org/2000/svg">
<path d="M10.6488 7.875L7.875 10.64V10.5C7.875 9.80381 8.15156 9.13613 8.64384 8.64384C9.13613 8.15156 9.80381 7.875 10.5 7.875H10.6488ZM14.4112 8.575L13.055 9.93125C13.0988 10.115 13.125 10.2987 13.125 10.5C13.125 11.1962 12.8484 11.8639 12.3562 12.3562C11.8639 12.8484 11.1962 13.125 10.5 13.125C10.3075 13.125 10.115 13.0988 9.93125 13.055L8.575 14.4112C9.16125 14.7 9.80875 14.875 10.5 14.875C11.6603 14.875 12.7731 14.4141 13.5936 13.5936C14.4141 12.7731 14.875 11.6603 14.875 10.5C14.875 9.80875 14.7 9.16125 14.4112 8.575ZM19.25 3.73625L17.255 5.73125L16.8612 6.125C18.305 7.2625 19.4425 8.75 20.125 10.5C18.6112 14.3412 14.875 17.0625 10.5 17.0625C9.14375 17.0625 7.84875 16.8 6.6675 16.3275L6.29125 16.695L3.73625 19.25L2.625 18.1388L18.1388 2.625M10.5 6.125C9.33968 6.125 8.22688 6.58594 7.40641 7.40641C6.58594 8.22688 6.125 9.33968 6.125 10.5C6.125 11.06 6.23875 11.6025 6.44 12.0925L3.87625 14.6562C2.56375 13.5625 1.51375 12.1275 0.875 10.5C2.38875 6.65875 6.125 3.9375 10.5 3.9375C11.725 3.9375 12.8975 4.15625 14 4.55L12.1012 6.43125C11.6025 6.23875 11.0688 6.125 10.5 6.125Z" fill="white"/>
</svg>
