<svg width="21" height="21" viewBox="0 0 21 21" fill="none" xmlns="http://www.w3.org/2000/svg">
<path d="M10.5 7.875C11.1962 7.875 11.8639 8.15156 12.3562 8.64384C12.8484 9.13613 13.125 9.80381 13.125 10.5C13.125 11.1962 12.8484 11.8639 12.3562 12.3562C11.8639 12.8484 11.1962 13.125 10.5 13.125C9.80381 13.125 9.13613 12.8484 8.64384 12.3562C8.15156 11.8639 7.875 11.1962 7.875 10.5C7.875 9.80381 8.15156 9.13613 8.64384 8.64384C9.13613 8.15156 9.80381 7.875 10.5 7.875ZM10.5 14.875C11.6603 14.875 12.7731 14.4141 13.5936 13.5936C14.4141 12.7731 14.875 11.6603 14.875 10.5C14.875 9.33968 14.4141 8.22688 13.5936 7.40641C12.7731 6.58594 11.6603 6.125 10.5 6.125C9.33968 6.125 8.22688 6.58594 7.40641 7.40641C6.58594 8.22688 6.125 9.33968 6.125 10.5C6.125 11.6603 6.58594 12.7731 7.40641 13.5936C8.22688 14.4141 9.33968 14.875 10.5 14.875ZM10.5 3.9375C14.875 3.9375 18.6112 6.65875 20.125 10.5C18.6112 14.3412 14.875 17.0625 10.5 17.0625C6.125 17.0625 2.38875 14.3412 0.875 10.5C2.38875 6.65875 6.125 3.9375 10.5 3.9375Z" fill="white"/>
</svg>
