<!DOCTYPE svg PUBLIC "-//W3C//DTD SVG 1.1//EN" "http://www.w3.org/Graphics/SVG/1.1/DTD/svg11.dtd">
<!-- Uploaded to: SVG Repo, www.svgrepo.com, Transformed by: SVG Repo Mixer Tools -->
<svg fill="#1F63C7" width="800px" height="800px" viewBox="0 0 512 512" data-name="Layer 1" id="Layer_1" xmlns="http://www.w3.org/2000/svg" stroke="#1F63C7" stroke-width="17.408">
<g id="SVGRepo_bgCarrier" stroke-width="0"/>
<g id="SVGRepo_tracerCarrier" stroke-linecap="round" stroke-linejoin="round"/>
<g id="SVGRepo_iconCarrier">
<path d="M218.39,320.61,246.77,349H157a93,93,0,0,1,0-186h18V133H157a123,123,0,0,0,0,246h89.77l-28.38,28.38,21.22,21.23L304.22,364l-64.61-64.61Z"/>
<path d="M355,133H265.23l28.38-28.38L272.39,83.39,207.78,148l64.61,64.61,21.22-21.22L265.23,163H355a93,93,0,0,1,0,186H336.44v30H355a123,123,0,0,0,0-246Z"/>
</g>
</svg>