<svg width="800" height="800" viewBox="0 0 800 800" fill="none" xmlns="http://www.w3.org/2000/svg">
<path d="M400 400C473.638 400 533.334 340.305 533.334 266.667C533.334 193.029 473.638 133.333 400 133.333C326.362 133.333 266.667 193.029 266.667 266.667C266.667 340.305 326.362 400 400 400Z" fill="#991B1C"/>
<path d="M177.929 577.354C199.966 484.23 292.391 433.333 388.087 433.333H411.913C507.61 433.333 600.033 484.23 622.07 577.354C626.333 595.37 629.723 614.227 631.63 633.387C633.453 651.707 618.41 666.667 600 666.667H200C181.591 666.667 166.547 651.707 168.37 633.387C170.277 614.227 173.666 595.37 177.929 577.354Z" fill="#991B1C"/>
</svg>
